<svg id="Layer_1" data-name="Layer 1" xmlns="http://www.w3.org/2000/svg" xmlns:xlink="http://www.w3.org/1999/xlink" viewBox="0 0 368.87 368.87"><defs><style>.cls-1{fill:url(#linear-gradient);}.cls-2{fill:#fff;}.cls-3{fill:#333;}</style><linearGradient id="linear-gradient" x1="54.02" y1="314.85" x2="314.85" y2="54.02" gradientUnits="userSpaceOnUse"><stop offset="0" stop-color="#00b4d2"/><stop offset="0.5" stop-color="#00cd7d"/><stop offset="1" stop-color="#fff265"/></linearGradient></defs><circle class="cls-1" cx="184.44" cy="184.44" r="184.44"/><circle class="cls-2" cx="184.44" cy="184.44" r="141.73"/><path class="cls-3" d="M284.66,284.66a141.06,141.06,0,0,1-80.48,40.13V283.38a73,73,0,0,0,27.5-120.5l-34.4,34.4a24.33,24.33,0,0,1-32.58,36.05c-.62-.52-1.23-1.06-1.82-1.65l-34.4,34.4a72.55,72.55,0,0,0,36.22,19.74v39a141.73,141.73,0,0,1,0-280.7V85.51A73,73,0,0,0,137.21,206l27.49-27.5,6.9-6.9a24.33,24.33,0,0,1,32.58-36c.62.52,1.23,1.07,1.82,1.66l34.4-34.41a72.62,72.62,0,0,0-36.22-19.74v-39a141.73,141.73,0,0,1,80.48,240.57Z"/></svg>